<?xml version="1.0" encoding="utf-8"?>
<!-- Svg Vector Icons : http://www.onlinewebfonts.com/icon -->
<!DOCTYPE svg PUBLIC "-//W3C//DTD SVG 1.1//EN" "http://www.w3.org/Graphics/SVG/1.1/DTD/svg11.dtd">
<svg version="1.1" xmlns="http://www.w3.org/2000/svg" xmlns:xlink="http://www.w3.org/1999/xlink" x="0px" y="0px" viewBox="0 0 256 256" enable-background="new 0 0 256 256" xml:space="preserve">
<metadata> Svg Vector Icons : http://www.onlinewebfonts.com/icon </metadata>
<g><g><path fill="#000000" d="M128,10C62.8,10,10,62.8,10,128c0,65.2,52.8,118,118,118c65.2,0,118-52.8,118-118C246,62.8,193.2,10,128,10L128,10z M24.3,128C24.3,70.7,70.7,24.3,128,24.3c24.8,0,47.7,8.7,65.5,23.3c2.7,2.2,5.3,4.6,7.8,7l-150,143.2c-0.3-0.3-0.5-0.6-0.8-0.9C34.2,178.6,24.3,154.5,24.3,128L24.3,128z M128,231.7c-25,0-47.9-8.8-65.8-23.5L211.2,66c12.9,17.3,20.5,38.7,20.5,62C231.7,185.3,185.3,231.7,128,231.7L128,231.7z"/></g></g>
</svg>